<svg xmlns="http://www.w3.org/2000/svg" viewBox="0 0 116.82 32"><defs><style>.cls-1,.cls-3{fill:#293e40;}.cls-1,.cls-2{fill-rule:evenodd;}.cls-2{fill:#81b5a1;}</style></defs><title>Asset 1</title><g id="Layer_2" data-name="Layer 2"><g id="Layer_1-2" data-name="Layer 1"><path class="cls-1" d="M0,31.35V.63H7.89V3.1A13.44,13.44,0,0,1,16.53,0a13.76,13.76,0,0,1,10.6,4.94c2,2.41,3.16,5.51,3.16,10.77V31.35h-8.2V15.07c0-3-.7-4.62-1.83-5.76A6.45,6.45,0,0,0,15.65,7.6,9.79,9.79,0,0,0,8.2,11.4v20Z"/><path class="cls-2" d="M51.41,0A18,18,0,0,0,39,31a3.54,3.54,0,0,0,4.61.24,12.85,12.85,0,0,1,15.31,0A3.55,3.55,0,0,0,63.6,31,18,18,0,0,0,51.41,0m-.1,26.93a8.72,8.72,0,0,1-9-8.94,8.95,8.95,0,1,1,17.89,0,8.71,8.71,0,0,1-8.94,8.94"/><polygon class="cls-1" points="85.43 31.35 79.32 31.35 67.13 0.63 75.33 0.63 82 18.19 88.55 0.63 95.4 0.63 101.89 18.19 108.63 0.63 116.82 0.63 104.64 31.35 98.53 31.35 91.98 13.86 85.43 31.35"/><polygon class="cls-3" points="112.32 27.45 112.32 28.12 111.29 28.12 111.29 31.35 110.54 31.35 110.54 28.12 109.5 28.12 109.5 27.45 112.32 27.45"/><polygon class="cls-3" points="114.87 29.79 116.29 27.45 116.82 27.45 116.82 31.35 116.07 31.35 116.07 29.18 115.13 30.71 114.61 30.71 113.67 29.18 113.67 31.35 112.92 31.35 112.92 27.45 113.45 27.45 114.87 29.79"/></g></g></svg>